<svg xmlns="http://www.w3.org/2000/svg" viewBox="0 0 1610 334"><defs><style>.\39 975c1e9-694f-40b9-8e2c-9304f81cd875{fill:#82bc00;}.\32 7b756e1-8c69-41c9-bf91-d6b707e5339b{fill:#1e1e1f;}.\35 dcdaab3-c922-435f-91aa-20bb2b3cdfd8{fill:#fefefe;}.\35 2201aa3-6e1f-4464-9549-72f4ae7f3cda{fill:#487a2d;}.b37affa4-09aa-4124-8d48-32fead986828{fill:#f47d20;}.\32 d2120c9-2caa-486b-810f-98e64d37d26c{fill:#85be42;}</style></defs><title>nbis_scilifelab_colour</title><g id="bb3daa37-39d7-48ce-9a50-ee31bec8abb9" data-name="Layer 1 Image"><path class="9975c1e9-694f-40b9-8e2c-9304f81cd875" d="M1195,12.7c3.2,2.1,7.1.4,10.7,2.7-4.9,5.1-10,10.3-15,15.5-1.4,1.5-2.8.4-4.1,0-6.6-1.9-13.2-3.5-20.1-2.9-13.5,1.2-22.1,9-27.5,20.9-4.6,10.1-6.3,21-7.6,31.9-1.2,9.6-2,19.2-3.2,28.8-.5,4.2.2,5.8,5,5.7,15.1-.2,30.3.1,45.5.3,1.8,0,3.5.2,6,.4-5.5,6.5-8.1,13.6-10.1,21-.9,3.5,0,4.3,3.5,4.3,15.3-.2,30.6-.2,46-.4,1.3,0,2.9.6,3.3-1.8,2.2-13.7-11.1-29.9-25.1-30.1-1,0-2,0-3,.1s-2.1.1-2.2-1.3c-.1-1.2.7-1.6,1.8-1.9,21.9-6.2,48.9,15.3,47.5,37.7-.2,3.8-2.7,2.7-4.6,2.7-21,.1-42,.3-63-.1-5.2-.1-6.5,1.7-6.7,6.4-.5,16.1,3.4,30.8,14.1,43,10.9,12.4,27.5,16.1,42.8,10.1,7.7-3,12.9-8.6,16-16.2.5-1.2.6-3.5,2.7-2.7,2.3.8.7,2.6.3,3.8a33.74,33.74,0,0,1-17.6,21.3c-19.5,10-48.6,5.7-64.4-9.4-17.3-16.6-21.5-45.4-9.8-68.4.6-1.2,1.2-2.3,1.8-3.4-.8-1.7-2.1-1.1-3.2-1.1-8.3-.1-16.7.1-25-.1-2.9-.1-4,.7-4.3,3.7-1.8,16.9-3.6,33.8-5.7,50.6-2.9,24.3-2.7,48.9-8,72.9-5,22.6-14.7,42.7-33.6,57.4a68.54,68.54,0,0,1-31.2,13.7c-.8.1-1.7,0-2.1,1h-17c-2.5-.8-5-1.6-8.3-2.7,5.3-4.8,10.2-9.3,15.2-13.8,1.5-1.4,3.1-.2,4.7.2,6.5,1.7,13,3,19.7,2,13-1.9,21.5-9.8,27.4-21,5.5-10.5,7.8-21.9,9-33.6,4.2-41.7,8.2-83.5,12.4-125.2.4-4.1-.7-5.1-4.6-4.9-5.3.3-10.6.1-17.3.1,5.1-5.3,9.3-9.8,13.6-14.2,1.3-1.3,3.2-.8,4.8-.6,4.4.6,6-1,6.3-5.6a136.78,136.78,0,0,1,8-39c7.2-20.4,18.4-37.6,38-48.2a75.26,75.26,0,0,1,27-8.4c1-.1,2.4.5,3-1.1C1189.7,12.7,1192.3,12.7,1195,12.7Z"/><path class="27b756e1-8c69-41c9-bf91-d6b707e5339b" d="M1600,172.7c-1.7.6-1.2,2.3-1.4,3.4-7.3,28.5-31.3,44.4-60.6,40.3a75.7,75.7,0,0,1-17.6-5.1c-7.5-3.2-11.1-1.9-15.5,5-.2.3-.5.5-.6.8-.7,2.7-2.7,3-5,2.7-3-.4-1.7-2.8-1.7-4.3q-.15-70.95-.1-142a55,55,0,0,0-1.4-13.4c-2-7.7-6.4-11.5-14.3-12.5-1.3-.2-3.3.8-3.6-1.6-.3-2.7,1.9-2.1,3.5-2.4,10.4-1.4,20.8-2.6,31.1-4.4,3.7-.6,4.1.5,4.1,3.7-.1,24.2,0,48.3,0,72.5v5.7c14.2-16.2,31.4-18,49.3-12.1,18.5,6.1,29.5,19.7,32.9,39.1.1.7.2,1.3.9,1.5C1600,157.4,1600,165,1600,172.7Zm-83.1-12.4a130.62,130.62,0,0,0,3.3,34.7c3.3,13.8,15.2,21.1,29.1,18,9.1-2,15.3-7.7,19.9-15.4,9.6-16,10.6-33.3,7.2-51.1-2.4-12.4-7.7-23.4-18-31.2-11.5-8.7-25.8-6.3-34.2,5.4a31,31,0,0,0-5.1,12.3C1517,142,1516.7,151.2,1516.9,160.3Z"/><path class="27b756e1-8c69-41c9-bf91-d6b707e5339b" d="M625,188V165.5c0-1.1-.9-2.9,1.2-3.2s2.4,1.2,2.8,2.8c2.7,9.4,5.8,18.8,11,27.1,8.8,13.9,20.4,23.4,38,21.8,19-1.7,32-18.2,29.6-37.3-1.7-13.8-8-24.5-20.2-31.4-10.6-6-21.3-11.5-31.9-17.5-12-6.8-21.4-16-23.8-30.3-3.1-18.1,1.8-33.7,15.4-46.1,13.8-12.6,30-14.7,47.5-9,5.2,1.7,10.2,4,15.4,5.8,4.2,1.5,8.3,1.9,10.1-3.7a2.09,2.09,0,0,1,2.7-1.6c1.6.4,1.1,1.9,1.1,2.9.3,14.8.5,29.6.7,44.4,0,1.1.6,2.4-1.4,2.4-1.5,0-1.9-.8-2.3-2.1-1.2-4.3-2.6-8.6-4-12.8-3.2-9.4-7.8-18-15-25-12.3-12-32.1-12.3-43.2-.7-11.8,12.2-10.9,30.8,2.1,43.3,7.5,7.2,16.9,11,26,15.4,11.7,5.7,23.6,10.9,32.9,20.3,14.9,15,18,33,11.7,52.5s-20.3,30.7-40.4,34.2c-14.8,2.6-29.1.3-42.9-5.5-2.9-1.2-5.8-2.5-8.8-3.6-4.3-1.6-7.9-.7-10.4,3.2-.7,1.1-1.4,2.4-3,2-1.9-.5-1.1-2.2-1.1-3.4-.1-7.5,0-15,0-22.5C624.9,188,624.9,188,625,188Z"/><path class="9975c1e9-694f-40b9-8e2c-9304f81cd875" d="M962.9,214.6H895.4a20.85,20.85,0,0,1-2.5,0c-1.6-.4-4.3,1.2-4.5-1.5-.3-2.9,2.6-1.7,4.1-2.2,1.1-.3,2.3-.2,3.5-.5,10.9-2.4,17-9.9,18-22.2.3-3.1.5-6.3.5-9.5q-.15-52.2-.3-104.5c0-1.2-.1-2.3-.2-3.5-1-14.4-7.5-21.4-21.7-23.5-1.5-.2-4,.4-3.9-2,.1-2.6,2.6-1.5,4-1.5q36-.15,72,0c1.3,0,3.3-.9,3.7,1.3.4,2-1.4,2-2.7,2.1-19.1,1.8-22.9,13.3-23,27-.3,34.6-1.3,69.3.6,103.9,1.1,19.5,11.7,30.1,31.1,31.7a95.78,95.78,0,0,0,23.9-.9c16.6-3,27.5-12.7,33.2-28.3,1.7-4.8,2.8-9.9,4.3-14.8.3-1.1,0-3,2.1-2.8,2.4.1,1.7,2,1.7,3.4-.4,15-.9,30-1.2,44.9-.1,3.7-2.2,3.4-4.6,3.4C1009.8,214.5,986.3,214.6,962.9,214.6Z"/><path class="27b756e1-8c69-41c9-bf91-d6b707e5339b" d="M792.1,216.6c-26.4.2-45.4-13.2-51.6-36.1-8.2-30,7.1-61.5,34.7-70.8,13.4-4.6,27.1-4.9,40.6-.1a26.94,26.94,0,0,1,11.2,7.3c3.3,3.6,4.7,7.7,3,12.4-1.3,3.6-4.1,5.5-8,5.7-5.3.3-8.3-2.9-10.6-7a41.89,41.89,0,0,1-2.6-7c-3.5-10.1-10.7-13.8-21.1-10.7A28.28,28.28,0,0,0,770.6,124c-11.5,20.7-14.2,42.1-3.6,64,5.9,12.2,15,21.2,29.3,22.9,14,1.7,23.6-3.9,29.8-16.6.6-1.3.5-4.1,2.9-3.1s.5,2.9,0,4.2c-5.4,14.1-16.5,20.2-30.9,21.2C796.1,216.7,794.1,216.6,792.1,216.6Z"/><path class="9975c1e9-694f-40b9-8e2c-9304f81cd875" d="M1079.9,153.1c0,13-.1,26,0,39,.1,11.8,3,15.5,14.4,18.8,1.3.4,3.5.2,3.1,2.4s-2.4,1.3-3.8,1.3q-24,.15-48,0c-1.2,0-3.3,1-3.6-1.4-.2-2,1.7-1.9,2.8-2,10.8-1.1,14.4-7.2,15-17.8,1-17.5.7-35,.4-52.4a99.41,99.41,0,0,0-.8-13.4c-1.1-7.5-5.3-12.4-13.2-13.5-1.2-.2-3,.4-3-1.6s1.8-1.6,3-1.7c9.7-1.3,19.5-2.4,29.2-3.8,3.5-.5,4.2.7,4.2,4-.1,14.2-.1,28.3-.1,42.5C1079.7,153.1,1079.8,153.1,1079.9,153.1Z"/><path class="27b756e1-8c69-41c9-bf91-d6b707e5339b" d="M867.2,151.5c0,13.5-.1,27,0,40.5.2,11.9,3.2,15.5,14.5,18.8,1.3.4,3.5.2,3,2.4s-2.4,1.2-3.7,1.2q-24,.15-48,0c-1.3,0-3.4.9-3.4-1.6-.1-1.9,1.8-1.7,3-2,10.9-2.7,13.8-5.6,14.6-16.9a486.63,486.63,0,0,0,.1-63.9c-.6-10.4-4.2-14-14.2-16.3-1.1-.3-2.4,0-2.2-1.9.1-1.5,1.2-1.3,2.2-1.4,10.4-1.3,20.8-2.5,31.2-4,3.6-.5,2.8,1.6,2.8,3.5v41.5C867.1,151.5,867.1,151.5,867.2,151.5Z"/><path class="27b756e1-8c69-41c9-bf91-d6b707e5339b" d="M857,62.7a11.85,11.85,0,0,1,11.8,11.6,12.06,12.06,0,0,1-12.2,11.9,11.74,11.74,0,0,1-11.7-11.8A11.56,11.56,0,0,1,857,62.7Z"/><path class="9975c1e9-694f-40b9-8e2c-9304f81cd875" d="M1058,74.5a11.9,11.9,0,0,1,23.8-.3,12,12,0,0,1-11.6,12A11.76,11.76,0,0,1,1058,74.5Z"/><path class="27b756e1-8c69-41c9-bf91-d6b707e5339b" d="M1312.5,214.6h-72c-1.1,0-2.4.3-2.5-1.5s1-1.8,2.2-1.9a55,55,0,0,0,6.9-1.1c9.1-2.5,14.4-8.4,16-17.7a75,75,0,0,0,1.1-13.4c0-34.6-.1-69.3-.2-103.9a60.16,60.16,0,0,0-1.1-10.4c-1.8-8.9-8.6-15.2-17.7-16.7-1.5-.2-3-.3-4.5-.6-1.2-.2-2.9.1-2.7-2,.2-1.9,1.7-1.2,2.7-1.3h74.5c1,0,2.5-.6,2.8,1.2.3,2.1-1.3,1.9-2.6,2.1a62.56,62.56,0,0,0-7.3,1.4c-8.6,2.4-13.3,8.3-15.1,16.8a81.82,81.82,0,0,0-1.2,16.4c0,29,0,58,.2,87a98.67,98.67,0,0,0,1.1,14.4c2,13.8,10.1,22.6,23.7,25.5a75.62,75.62,0,0,0,36.6-1.2c13.9-4,22.5-13.7,27.4-26.9,1.7-4.7,2.8-9.6,4.1-14.4.4-1.5,0-3.7,2.6-3.4,2.4.3,1.4,2.3,1.3,3.5-.4,14.8-1,29.6-1.3,44.4-.1,3.7-1.9,3.8-4.7,3.8C1359.5,214.5,1336,214.6,1312.5,214.6Z"/><path class="27b756e1-8c69-41c9-bf91-d6b707e5339b" d="M1452.5,202.4c-9.4,9.8-20.3,15.2-33.7,14.2a42,42,0,0,1-9.3-1.5c-10.6-2.9-17-10.1-18.2-20.1-1.3-10.7,3.8-20.5,13.5-25.8,7.4-4,15.7-5.4,23.6-7.7,5.6-1.6,11.2-3.2,16.1-6.4,3-2,5.7-4.5,6.5-8,2.3-9.8,2.2-19.6-2.6-28.7-3.4-6.4-9.4-9.4-16.5-9.3s-12.1,4-14.9,10.6c-.9,2.2-1.9,4.3-2.8,6.4-1.9,4.4-5.4,6.2-10,5.8-4.4-.3-7.6-2.7-8.8-6.9-1.3-4.4.2-8.2,3.9-11,6.3-4.8,13.9-6.3,21.5-7.4A67.24,67.24,0,0,1,1456,111c11.3,4.5,15.5,10.6,15.6,22.8l.3,57a37,37,0,0,0,.9,9.4c1,4,3,7.2,7.2,8.1s8.3.4,11.3-3.3c.4-.5.9-1,1.3-1.5.8-1,1.6-1.8,2.9-.8,1,.8.4,1.8,0,2.7a17.42,17.42,0,0,1-10.3,9.6c-11.8,4.2-23.6.5-30.7-9.8A17.34,17.34,0,0,1,1452.5,202.4Zm0-48.9c-9.1,7.4-19.1,11.2-27.7,17.3a27.17,27.17,0,0,0-11.5,19c-1.2,8.3,2.5,16.8,8.8,20.3,6,3.3,14.5,1.7,20.7-3.9a27.08,27.08,0,0,0,7.6-13.2C1453.7,180.5,1452.1,167.6,1452.5,153.5Z"/><path class="5dcdaab3-c922-435f-91aa-20bb2b3cdfd8" d="M1516.9,160.3c-.2-9.2.1-18.3,2.1-27.3a34.17,34.17,0,0,1,5.1-12.3c8.4-11.7,22.7-14,34.2-5.4,10.3,7.8,15.6,18.8,18,31.2,3.5,17.8,2.5,35.1-7.2,51.1-4.6,7.6-10.9,13.4-19.9,15.4-14,3.1-25.8-4.2-29.1-18A134.83,134.83,0,0,1,1516.9,160.3Z"/><path class="5dcdaab3-c922-435f-91aa-20bb2b3cdfd8" d="M1452.5,153.5c-.3,14,1.2,26.9-2.2,39.6a25.62,25.62,0,0,1-7.6,13.2c-6.1,5.6-14.7,7.2-20.7,3.9-6.2-3.4-9.9-11.9-8.8-20.3a27,27,0,0,1,11.5-19C1433.4,164.7,1443.4,160.9,1452.5,153.5Z"/></g><g id="ce46cb8d-ace0-4152-b81d-a852e437036e" data-name="Layer 2"><g id="5364e115-2e58-480c-96b1-c25262384966" data-name="g7130"><path id="12a81be7-2ef6-4516-98fe-fb28594f2246" data-name="path7134" class="52201aa3-6e1f-4464-9549-72f4ae7f3cda" d="M309.42,50.12h0a4.3,4.3,0,0,0-3.83-2.36h-3.5A2.37,2.37,0,0,0,300,51.2l5.85,11.67L311.16,72a57.67,57.67,0,0,0,16.66,18l34.79,24.34a43.43,43.43,0,0,1,11.83,12.41L385.79,145l1.66-14.7L378.3,114a33.94,33.94,0,0,0-10.75-11.62L329.88,77.18l-3.65-3.33a65.78,65.78,0,0,1-14.38-18.91l-2.44-4.82"/><path id="b6c77df3-27a9-42dd-8c47-34ffeff62e00" data-name="path7136" class="52201aa3-6e1f-4464-9549-72f4ae7f3cda" d="M330,186.48h0L317.47,175l-7.55-18.49.27-7.09-3.67,12.67,2,7.75a36.22,36.22,0,0,0,15.35,21.41l32.92,21.42a19.94,19.94,0,0,0,10.87,3.23H369a3.33,3.33,0,0,0,1.65-6.23L330,186.48"/><path id="0dfac791-8d38-4310-8664-bb0d6ad28b58" data-name="path7138" class="52201aa3-6e1f-4464-9549-72f4ae7f3cda" d="M385,72.62h0l.14.27a5.15,5.15,0,0,1,.38,3.93l-1.43,4.63A1.79,1.79,0,0,1,381,82L362.2,57.83a3.82,3.82,0,0,1,3.21-6.15l5.85.3a5.11,5.11,0,0,1,4.25,2.71L385,72.62"/><path id="cf8f7e5b-8e26-4687-ae33-f4c7740a440a" data-name="path7140" class="b37affa4-09aa-4124-8d48-32fead986828" d="M374.78,60.11h0A2.65,2.65,0,0,1,372.17,64l-27.55-2.84a2.59,2.59,0,0,0-.54,0L313.2,64.3a2.65,2.65,0,0,1-2.66-1.49L307.29,56a2.65,2.65,0,0,1,2.9-3.74l33.11,6.47a2.66,2.66,0,0,0,.8,0l25.83-2.86a3.68,3.68,0,0,1,3.66,1.93l1.21,2.27"/><path id="0e8c4f5e-9741-4fc1-b2b7-5bb6642d348b" data-name="path7142" class="b37affa4-09aa-4124-8d48-32fead986828" d="M383.22,78.32h0a2.64,2.64,0,0,1,.37,1.13h0a2.65,2.65,0,0,1-2.91,2.87l-22.92-2.38a2.66,2.66,0,0,0-.49,0L328,82.35a2.64,2.64,0,0,1-2-.69l-2.58-2.36a2.65,2.65,0,0,1,2-4.59l31.2,2.77a2.63,2.63,0,0,0,.82-.06L376.69,73a4.17,4.17,0,0,1,4.49,1.91l2,3.37"/><path id="1882ad10-34de-4b7a-970f-24ca61189128" data-name="path7144" class="b37affa4-09aa-4124-8d48-32fead986828" d="M347.72,93.81l15.79,2.64a2.65,2.65,0,0,0,1.34-.12L371.33,94a2.65,2.65,0,0,1,3.4,3.36l-.13.36a2.65,2.65,0,0,1-2.71,1.77l-7.14-.56a2.64,2.64,0,0,0-1.09.14l-8.39,3a2.65,2.65,0,0,1-2.77-.64l-5.71-5.79a1.05,1.05,0,0,1,.92-1.77"/><path id="5411c702-d27e-458c-a85e-c3d0237d467b" data-name="path7146" class="b37affa4-09aa-4124-8d48-32fead986828" d="M313.75,174.29h0a2.65,2.65,0,0,0,3,1.78l16.4-3.17a2.66,2.66,0,0,1,.65,0l12.16.66a2.65,2.65,0,0,0,2.5-1.45l.43-.85a2.65,2.65,0,0,0-3-3.77l-11.91,3a2.64,2.64,0,0,1-1,0L314,167.64a1.62,1.62,0,0,0-1.78,2.11l1.48,4.54"/><path id="23308742-af0f-4416-af31-7db7101c2c73" data-name="path7148" class="b37affa4-09aa-4124-8d48-32fead986828" d="M369.51,114.8l-4.11,2a2.64,2.64,0,0,1-1.19.27l-16.81-.23a2.65,2.65,0,0,0-2.61,2l-.9,3.84a2.65,2.65,0,0,0,3.45,3.11l17.56-6.15a2.65,2.65,0,0,1,1.38-.1l4.29.83a2.65,2.65,0,0,0,2.74-4l-.38-.6a2.65,2.65,0,0,0-3.39-1"/><path id="2192e353-e7de-4f2d-aab9-6b158f8576e5" data-name="path7150" class="b37affa4-09aa-4124-8d48-32fead986828" d="M383.51,133.89h0a2.65,2.65,0,0,1-2.58,3.56l-21-.73a2.62,2.62,0,0,0-.6,0l-34.17,6.71a2.65,2.65,0,0,1-2.72-4.05l4.5-6.84a2.65,2.65,0,0,1,2.5-1.18l29.8,3.28a2.64,2.64,0,0,0,.78,0l20-3.77a2.69,2.69,0,0,1,3,1.71l.47,1.28"/><path id="a63545e8-570b-4a56-8135-e7cbeae5e387" data-name="path7152" class="b37affa4-09aa-4124-8d48-32fead986828" d="M355.38,203.94h0a2.65,2.65,0,0,1-1.75,4.81l-18.17-1.3-.64,0L315,210.27a2.65,2.65,0,0,1-2.62-4l2.33-3.78a2.65,2.65,0,0,1,2.93-1.17l16.89,4.45a2.66,2.66,0,0,0,1.3,0L352.16,203a3.7,3.7,0,0,1,2.74.61l.48.33"/><path id="5fdcc91d-b42c-4fed-84c2-973018fd971d" data-name="path7154" class="b37affa4-09aa-4124-8d48-32fead986828" d="M374.89,146.64l-5.09,10.18a2.65,2.65,0,0,1-2.65,1.45l-27.7-2.94a2.63,2.63,0,0,0-.7,0l-27,4.32a2.65,2.65,0,0,1-2.71-3.94l1.6-2.75a2.65,2.65,0,0,1,2.46-1.31l25.64,1.64a2.61,2.61,0,0,0,.65,0l35.46-6.61h0"/><path id="3bcdc3b9-5472-4826-bbcf-cf605617b0ed" data-name="path7156" class="2d2120c9-2caa-486b-810f-98e64d37d26c" d="M380.08,84.15l5.72-8.72-.31,13.07a6.55,6.55,0,0,1-1.37,3.85L378.18,100a72,72,0,0,1-15.26,14.66l-35.25,25a35.9,35.9,0,0,0-6,5.38s-12.15,12.33-15.14,17c.47-2.41.6-3.72.6-3.72A44.21,44.21,0,0,1,316,138.13l2.93-3.74a37.29,37.29,0,0,1,8.14-7.67l34.57-23.92a54.12,54.12,0,0,0,7.64-6.41l5-5.09a45.57,45.57,0,0,0,5.78-7.16h0"/><path id="343eecb8-d434-4762-8a22-a48c6e05d85b" data-name="path7158" class="2d2120c9-2caa-486b-810f-98e64d37d26c" d="M357,159.42l-23.2,16.05a70.15,70.15,0,0,0-18.9,19.44L301.78,215a1.35,1.35,0,0,0,1.13,2.08H309A4.29,4.29,0,0,0,312.7,215l3.16-5.29a78.86,78.86,0,0,1,22-23.86l23.92-17a135,135,0,0,0,18.26-15.6l3.92-4a10.58,10.58,0,0,0,3-7l.45-12,0,.06a31.46,31.46,0,0,1-6.83,10l-1,1a26.17,26.17,0,0,1-2.33,2.07L357,159.42"/><path id="c01c697a-70b0-4fde-9343-7f0d30b6f7c7" data-name="path7160" class="9975c1e9-694f-40b9-8e2c-9304f81cd875" d="M17,40.66V219.89H55.53V116.34L106,219.89h45.79V40.66H113.25V144L62.44,40.66Z"/><path id="bb6d92d3-d879-4e98-ba09-2e4ffcdcd4db" data-name="path7162" class="9975c1e9-694f-40b9-8e2c-9304f81cd875" d="M208.83,141.8v46.71h24.76q15.69,0,23.17-6t7.48-18.39q0-22.31-31.87-22.31H208.83Zm0-30.16h22.07q15.45,0,22.37-4.78T260.19,91q0-10.3-7.54-14.77T228.81,71.8h-20v39.84Zm-38-71H226.6q38.13,0,55.35,10.85T299.18,86q0,16.06-7.54,26.36a30.11,30.11,0,0,1-20,12.38V126q17,3.8,24.58,14.22t7.54,27.71q0,24.52-17.71,38.25t-48.12,13.73H170.82V40.66"/><path id="2cf97cb2-3bb2-4968-b3a9-5e1615ca3653" data-name="path7164" class="9975c1e9-694f-40b9-8e2c-9304f81cd875" d="M504.21,169q0,23.66-17.47,37.27t-48.61,13.62q-28.69,0-50.75-10.51V175q18.14,7.89,30.71,11.11a93.07,93.07,0,0,0,23,3.23q12.5,0,19.18-4.66t6.68-13.86a15,15,0,0,0-2.94-9.14,32.66,32.66,0,0,0-8.64-7.71q-5.7-3.7-23.23-11.83-16.43-7.53-24.64-14.46a54.45,54.45,0,0,1-13.12-16.13q-4.9-9.2-4.9-21.5,0-23.18,16.12-36.44t44.56-13.26c9.32,0,14.77,1.27,23.17,3.64,9.35,2.64,14.14,3.72,23.15,7.18L497,86.29a99.85,99.85,0,0,0-28.21-13.39c-6.5-2-13.78-1.75-19.82-1.75q-10.79,0-16.55,4.9a16,16,0,0,0-5.76,12.78,15.5,15.5,0,0,0,2.33,8.54,25.28,25.28,0,0,0,7.42,7q5.09,3.4,24.09,12.24,25.13,11.71,34.45,23.48T504.21,169"/></g></g></svg>